<svg width="34" height="45" viewBox="0 0 41 50" fill="none" xmlns="http://www.w3.org/2000/svg">
<path d="M6.52617 7.97368H34.1577C35.0302 7.97368 35.8669 7.62712 36.4838 7.01022C37.1007 6.39332 37.4472 5.55663 37.4472 4.68421C37.4472 3.81179 37.1007 2.9751 36.4838 2.3582C35.8669 1.74131 35.0302 1.39474 34.1577 1.39474H27.3288C27.3288 1.02597 27.1828 0.672203 26.9226 0.410828C26.6625 0.149452 26.3094 0.00173948 25.9406 0L14.7564 0C14.3865 0 14.0318 0.146945 13.7702 0.408509C13.5086 0.670073 13.3617 1.02483 13.3617 1.39474H6.52617C5.65375 1.39474 4.81705 1.74131 4.20016 2.3582C3.58326 2.9751 3.23669 3.81179 3.23669 4.68421C3.23669 5.55663 3.58326 6.39332 4.20016 7.01022C4.81705 7.62712 5.65375 7.97368 6.52617 7.97368Z" fill="#FE7332"/>
<path d="M40.6776 13.4539C40.6776 12.5815 40.3311 11.7448 39.7142 11.1279C39.0973 10.511 38.2606 10.1644 37.3882 10.1644H3.28947C2.41705 10.1644 1.58036 10.511 0.963465 11.1279C0.346569 11.7448 0 12.5815 0 13.4539C0.00482352 13.7592 0.0513053 14.0625 0.138158 14.3552L5.61842 47.3684C5.77009 48.1114 6.1738 48.7792 6.76125 49.2587C7.34869 49.7382 8.08378 50.0001 8.84211 49.9999H31.8684C32.6267 50.0001 33.3618 49.7382 33.9493 49.2587C34.5367 48.7792 34.9404 48.1114 35.0921 47.3684L40.5855 14.3289C40.6545 14.0425 40.6855 13.7483 40.6776 13.4539ZM11.5789 38.5657C11.0485 38.6388 10.5108 38.4983 10.084 38.1751C9.65714 37.8519 9.3761 37.3724 9.30263 36.8421L7.65132 25.0592C7.61031 24.7954 7.62216 24.5262 7.68617 24.2671C7.75017 24.008 7.86506 23.7642 8.02415 23.5499C8.18324 23.3356 8.38335 23.1551 8.61284 23.0188C8.84234 22.8826 9.09663 22.7933 9.36094 22.7562C9.62525 22.7192 9.89428 22.735 10.1524 22.8029C10.4105 22.8707 10.6526 22.9892 10.8645 23.1515C11.0764 23.3138 11.2539 23.5165 11.3867 23.748C11.5196 23.9795 11.605 24.2351 11.6382 24.5L13.2961 36.2894C13.3692 36.8188 13.2296 37.3557 12.9078 37.7823C12.5859 38.209 12.1081 38.4907 11.5789 38.5657ZM22.3553 36.5921C22.3258 37.1069 22.1006 37.5911 21.7257 37.9452C21.3507 38.2993 20.8545 38.4966 20.3388 38.4966C19.8231 38.4966 19.3269 38.2993 18.952 37.9452C18.5771 37.5911 18.3518 37.1069 18.3224 36.5921V24.6644C18.3518 24.1495 18.5771 23.6654 18.952 23.3113C19.3269 22.9572 19.8231 22.7599 20.3388 22.7599C20.8545 22.7599 21.3507 22.9572 21.7257 23.3113C22.1006 23.6654 22.3258 24.1495 22.3553 24.6644V36.5921ZM33.0329 25.0789L31.375 36.8421C31.3419 37.1069 31.2564 37.3625 31.1236 37.594C30.9908 37.8255 30.8132 38.0283 30.6013 38.1905C30.3894 38.3528 30.1474 38.4713 29.8893 38.5391C29.6311 38.607 29.3621 38.6228 29.0978 38.5858C28.8335 38.5487 28.5792 38.4594 28.3497 38.3232C28.1202 38.1869 27.9201 38.0064 27.761 37.7921C27.6019 37.5778 27.487 37.334 27.423 37.0749C27.359 36.8158 27.3472 36.5466 27.3882 36.2828L29.0395 24.4934C29.1136 23.9638 29.3951 23.4854 29.822 23.1634C30.2489 22.8414 30.7862 22.7021 31.3158 22.7763C31.8454 22.8504 32.3238 23.1319 32.6458 23.5588C32.9678 23.9857 33.1071 24.523 33.0329 25.0526V25.0789Z" fill="#F0B825"/>
<path d="M20.3417 22.6511C19.8072 22.6511 19.2945 22.863 18.9159 23.2403C18.5373 23.6177 18.3237 24.1297 18.322 24.6643V36.5722C18.3514 37.087 18.5767 37.5712 18.9516 37.9253C19.3265 38.2794 19.8227 38.4767 20.3384 38.4767C20.8542 38.4767 21.3503 38.2794 21.7253 37.9253C22.1002 37.5712 22.3255 37.087 22.3549 36.5722V24.6643C22.3549 24.1303 22.1428 23.6183 21.7652 23.2407C21.3877 22.8632 20.8757 22.6511 20.3417 22.6511Z" fill="#9698FE"/>
<path d="M11.6378 24.5C11.6047 24.2352 11.5192 23.9796 11.3864 23.7481C11.2536 23.5166 11.076 23.3138 10.8641 23.1515C10.6522 22.9893 10.4102 22.8708 10.152 22.8029C9.89391 22.7351 9.62487 22.7192 9.36057 22.7563C9.09626 22.7933 8.84196 22.8826 8.61247 23.0189C8.38297 23.1551 8.18286 23.3356 8.02378 23.5499C7.86469 23.7642 7.7498 24.008 7.68579 24.2671C7.62179 24.5262 7.60994 24.7955 7.65094 25.0592L9.30226 36.8421C9.37642 37.3716 9.6579 37.8501 10.0848 38.1721C10.5117 38.4941 11.049 38.6333 11.5786 38.5592C12.1081 38.485 12.5866 38.2036 12.9086 37.7767C13.2306 37.3498 13.3698 36.8124 13.2957 36.2829L11.6378 24.5Z" fill="#9698FE"/>
<path d="M31.3158 22.7827C30.7864 22.7095 30.2495 22.8491 29.8229 23.171C29.3962 23.4928 29.1145 23.9706 29.0394 24.4998L27.3881 36.2893C27.3471 36.553 27.359 36.8222 27.423 37.0813C27.487 37.3404 27.6019 37.5842 27.761 37.7985C27.92 38.0128 28.1202 38.1933 28.3497 38.3296C28.5791 38.4659 28.8334 38.5551 29.0977 38.5922C29.3621 38.6293 29.6311 38.6134 29.8892 38.5455C30.1473 38.4777 30.3894 38.3592 30.6013 38.1969C30.8132 38.0347 30.9907 37.8319 31.1236 37.6004C31.2564 37.3689 31.3418 37.1133 31.375 36.8485L33.0329 25.059C33.1061 24.5296 32.9664 23.9928 32.6446 23.5661C32.3227 23.1394 31.8449 22.8577 31.3158 22.7827Z" fill="#9698FE"/>
</svg>
