<svg xmlns="http://www.w3.org/2000/svg" viewBox="0 0 57.61 57.61"><defs><style>.cls-1{fill:#fe7332;}</style></defs><g id="Layer_2" data-name="Layer 2"><g id="Main"><g id="Cogwheels"><path id="CogwheelOrange" class="cls-1" d="M57.09,23.4H53.15a25,25,0,0,0-3.32-8l2.8-2.79A28.92,28.92,0,0,0,45,5l-2.8,2.79a24.79,24.79,0,0,0-8-3.31V.51A28.9,28.9,0,0,0,23.4.51v4a24.93,24.93,0,0,0-8,3.31L12.62,5A28.92,28.92,0,0,0,5,12.62l2.79,2.79a24.93,24.93,0,0,0-3.31,8H.51a28.9,28.9,0,0,0,0,10.81h4a24.79,24.79,0,0,0,3.31,8L5,45a28.92,28.92,0,0,0,7.64,7.64l2.79-2.8a25,25,0,0,0,8,3.32v3.94a28.35,28.35,0,0,0,10.81,0V53.15a24.81,24.81,0,0,0,8-3.32l2.8,2.8A28.92,28.92,0,0,0,52.63,45l-2.8-2.8a24.81,24.81,0,0,0,3.32-8h3.94a28.35,28.35,0,0,0,0-10.81ZM13.22,28.8A15.59,15.59,0,1,1,28.8,44.39,15.59,15.59,0,0,1,13.22,28.8Z"/></g></g></g></svg>