<svg xmlns="http://www.w3.org/2000/svg" viewBox="0 0 55.48 55.28"><defs><style>.cls-1{fill:#9698fe;}</style></defs><g id="Layer_2" data-name="Layer 2"><g id="Main"><g id="Stars"><path id="EmptyStarPurple" class="cls-1" d="M53.76,19.42h0L37,16.86,29.65,1.19h0A.88.88,0,0,0,29.53,1s0,0,0,0a3.11,3.11,0,0,0-.23-.28.23.23,0,0,1-.07-.07A2,2,0,0,0,29,.41L28.91.35,28.59.18l-.07,0-.3-.09-.1,0a2.58,2.58,0,0,0-.39,0,2.45,2.45,0,0,0-.39,0l-.11,0L27,.15l-.08,0a1.74,1.74,0,0,0-.33.18l-.06,0a2,2,0,0,0-.23.18l-.08.08A2,2,0,0,0,26,.94h0a2.2,2.2,0,0,0-.15.26h0v0L18.45,16.86,1.76,19.41H1.71A2.15,2.15,0,0,0,.6,23l.06.06L12.71,35.42,9.9,52.62l0,.13,0,.12a2.28,2.28,0,0,0,0,.26A2.15,2.15,0,0,0,12,55.28,2.19,2.19,0,0,0,13,55h0l14.75-8.16,14.19,7.85.49.27h0a2.16,2.16,0,0,0,3.2-1.88,2.58,2.58,0,0,0,0-.4.09.09,0,0,0,0,0l-.05-.29-2.76-17L54.68,23.19l.35-.35a2.15,2.15,0,0,0-1.27-3.42ZM39,33.85l2.66,16.3-13.92-7.7-13.92,7.7,2.65-16.3L5.2,22.3l15.57-2.38,7-14.83,7,14.83L50.26,22.3Z"/></g></g></g></svg>