<svg xmlns="http://www.w3.org/2000/svg" viewBox="0 0 84.44 73.4"><defs><style>.cls-1{fill:#fe7332;}.cls-2{fill:#9698fe;}.cls-3{fill:#f0b825;}</style></defs><g id="Layer_2" data-name="Layer 2"><g id="Main"><g id="Cart"><g id="EmptyCart"><path class="cls-1" d="M31.73,67.4a6,6,0,1,0,11.56-2.24H32.17A6,6,0,0,0,31.73,67.4Z"/><path class="cls-2" d="M37.73,61.4a6,6,0,0,0-5.56,3.76H43.29A6,6,0,0,0,37.73,61.4Z"/><path class="cls-1" d="M56.16,67.4a6,6,0,1,0,11.56-2.24H56.6A6,6,0,0,0,56.16,67.4Z"/><path class="cls-2" d="M62.16,61.4a6,6,0,0,0-5.56,3.76H67.72A6,6,0,0,0,62.16,61.4Z"/><path class="cls-3" d="M63,51.73A6.67,6.67,0,0,0,69,48h0L83.29,20.55a6.71,6.71,0,0,0-5.56-10.46h-60A6.7,6.7,0,0,0,11,16.79a6.63,6.63,0,0,0,.92,3.33h0L26.39,48h0a6.66,6.66,0,0,0,1.36,1.84l-7.22,7.21,0,0a4.72,4.72,0,0,0,3.32,8.08h8.27a6,6,0,0,1,11.12,0H56.6a6,6,0,0,1,11.12,0h3.79a4.73,4.73,0,0,0,0-9.45H35.25l4-4Z"/><path class="cls-1" d="M11.56,3.76A6,6,0,1,0,12,6,6,6,0,0,0,11.56,3.76Z"/></g></g></g></g></svg>