<svg xmlns="http://www.w3.org/2000/svg" viewBox="0 0 59.12 62.85"><defs><style>.cls-1{fill:#f0b825;}.cls-2{fill:#fe7332;}</style></defs><g id="Layer_2" data-name="Layer 2"><g id="Main"><g id="FemaleAccount"><g id="FemaleAccountYellowOrange"><path class="cls-1" d="M12.49,46.88s-.87-4-1.51-4.74-1.35-2.75,2.16-9.44S15,22.56,15,22.56,13.23,14,20,5.32A29.53,29.53,0,0,0,5.07,49.82l.35-.13A68.89,68.89,0,0,1,12.49,46.88Z"/><path class="cls-1" d="M46.15,21.53a35.82,35.82,0,0,0,2.64,12.19s1.35,3.67.92,5.88S47.39,45.21,48,46.94l5.88,2.75.19.06a29.56,29.56,0,0,0-12.6-43.5c2,2.49,4.16,5.76,4.37,8.22C46.26,19,45.77,20.83,46.15,21.53Z"/><path class="cls-2" d="M53.92,49.69,48,46.94c-.65-1.73,1.24-5.13,1.67-7.34s-.92-5.88-.92-5.88a35.82,35.82,0,0,1-2.64-12.19c-.38-.7.11-2.53-.27-7.06-.21-2.46-2.4-5.73-4.37-8.22-1.67-2.1-3.18-3.65-3.18-3.65a9.83,9.83,0,0,0-10-2c-2.48-1-5,1.13-5,1.13A29.29,29.29,0,0,0,20,5.32C13.23,14,15,22.56,15,22.56S16.64,26,13.14,32.7,10.33,41.44,11,42.14s1.51,4.74,1.51,4.74a68.89,68.89,0,0,0-7.07,2.81l-.35.13c.09.13.16.26.25.38a29.71,29.71,0,0,0,4.42,5,29.53,29.53,0,0,0,43.6-4.38c.22-.3.44-.59.65-.89a2,2,0,0,1,.12-.19Z"/></g></g></g></g></svg>