<svg xmlns="http://www.w3.org/2000/svg" viewBox="0 0 59.12 63.6"><defs><style>.cls-1{fill:#fe7332;}.cls-2{fill:#9698fe;}</style></defs><g id="Layer_2" data-name="Layer 2"><g id="Main"><g id="MaleAccount"><g id="MaleAccountOrangePurple"><path id="Circle_part_2" data-name="Circle part 2" class="cls-1" d="M42.9,7.79l-.4,0-.69,0-.21,0a4.16,4.16,0,0,1,1.73,1.62,5.72,5.72,0,0,1,.49.93,6.85,6.85,0,0,1,.41,1.21A11.31,11.31,0,0,1,44.58,14s-.07.39-.17,1c-.06.3-.12.65-.19,1,0,.19-.07.39-.1.59l-.24,1.23c-.11.63-.24,1.24-.35,1.77s-.21,1-.29,1.26l-.07.23.13,0,.22,0,.21,0a1.06,1.06,0,0,1,.31,0,.8.8,0,0,1,.55.59,2.11,2.11,0,0,1,.06.41,3.84,3.84,0,0,1-.07.77,7.34,7.34,0,0,0-1.11,3.63,6.07,6.07,0,0,0,0,.94.85.85,0,0,1,0,.15c0,.1,0,.24,0,.4a4.36,4.36,0,0,1-.07.68,2.31,2.31,0,0,1-.45,1,1.38,1.38,0,0,1-1.14.47,3.05,3.05,0,0,1-1-.19v.35a2.26,2.26,0,0,1,0,.25c0,.19,0,.42,0,.68s-.05.55-.1.86-.11.64-.19,1c0,.17-.08.34-.13.52-.1.36-.22.72-.36,1.09a8.45,8.45,0,0,1-.5,1.06c-.09.17-.2.34-.31.51-1.79,2.7-.69,7.74,1.3,8.51l14,4.54h0l.15.06a29.82,29.82,0,0,0,3.8-9.61A28.38,28.38,0,0,0,59.12,34,29.45,29.45,0,0,0,42.9,7.79Z"/><path id="Circle_path_1" data-name="Circle path 1" class="cls-1" d="M18.58,45.52s3.67-2.1,2.22-8.07h0c0-.07,0-.14,0-.21a6.56,6.56,0,0,1-1.71-3.5A13.43,13.43,0,0,1,18.67,30,2.05,2.05,0,0,1,16,28.77s-.21-3.52-.76-4.57c0,0-1.4-3.35.57-3.31,0,0-1.4-5.06-.19-7.91,0,0,.19-1-.72.53A10.36,10.36,0,0,1,17.65,7,29.54,29.54,0,0,0,0,34a28.6,28.6,0,0,0,2.9,12.5,29,29,0,0,0,1.59,2.89l.25-.12Z"/><path id="Account_person_button" data-name="Account person button" class="cls-2" d="M54.58,49.31h0l-14-4.54c-2-.77-3.09-5.81-1.3-8.51.11-.17.22-.34.31-.51a8.45,8.45,0,0,0,.5-1.06c.14-.37.26-.73.36-1.09,0-.18.09-.35.13-.52.08-.35.14-.68.19-1s.08-.6.1-.86,0-.49,0-.68a2.26,2.26,0,0,0,0-.25V30a3.05,3.05,0,0,0,1,.19A1.38,1.38,0,0,0,43,29.67a2.31,2.31,0,0,0,.45-1,4.36,4.36,0,0,0,.07-.68c0-.16,0-.3,0-.4a.85.85,0,0,0,0-.15,6.07,6.07,0,0,1,0-.94,7.34,7.34,0,0,1,1.11-3.63,3.84,3.84,0,0,0,.07-.77,2.11,2.11,0,0,0-.06-.41h0a.94.94,0,0,0-.2-.36l-.07-.06a.62.62,0,0,0-.28-.17,1.06,1.06,0,0,0-.31,0l-.21,0h0l-.22,0-.13,0,.07-.23c0-.13.08-.3.12-.48l0-.15c0-.19.09-.4.14-.63.11-.53.24-1.14.35-1.77l.24-1.23c0-.2.07-.4.1-.59.07-.37.13-.72.19-1,.1-.59.17-1,.17-1a11.31,11.31,0,0,0-.35-2.41,6.85,6.85,0,0,0-.41-1.21,5.72,5.72,0,0,0-.49-.93A4.16,4.16,0,0,0,41.6,7.87l.21,0,.69,0,.4,0,.61,0c-2.43-4.61-6-3.66-6-3.66.42-.61,1.75-.38,1.75-.38.08-1.25-2.85-1-2.85-1a3.92,3.92,0,0,1,2-.95c-.53-.49-4.49,0-4.49,0,0-.34.95-.72.95-.72-1.4-.8-3.69.26-3.69.26A4.86,4.86,0,0,1,32.71,0,8.56,8.56,0,0,0,26.5,2.13c.08-.91.58-1.1.58-1.1-2.17,0-4.57,2.74-4.57,2.74a7.74,7.74,0,0,0-4.31,1.8,1.81,1.81,0,0,1,1.23,0A9,9,0,0,0,17.65,7a10.36,10.36,0,0,0-2.75,6.49c.91-1.48.72-.53.72-.53-1.21,2.85.19,7.91.19,7.91-2,0-.57,3.31-.57,3.31.55,1.05.76,4.57.76,4.57A2.05,2.05,0,0,0,18.67,30a13.43,13.43,0,0,0,.38,3.76,6.56,6.56,0,0,0,1.71,3.5c0,.07,0,.14,0,.21h0c1.45,6-2.22,8.07-2.22,8.07L4.74,49.31l-.25.12a31.46,31.46,0,0,0,2.43,3.41,32.05,32.05,0,0,0,2.26,2.4c.6.58,1.22,1.15,1.87,1.69a29.14,29.14,0,0,0,38-.72,30.52,30.52,0,0,0,5.58-6.58h0l.15-.26Z"/></g></g></g></g></svg>