<svg xmlns="http://www.w3.org/2000/svg" viewBox="0 0 61.83 76.07"><defs><style>.cls-1{fill:#fe7332;}.cls-2{fill:#f0b825;}.cls-3{fill:#9698fe;}</style></defs><g id="Layer_2" data-name="Layer 2"><g id="Main"><g id="Trash"><g id="TrashClosed"><path class="cls-1" d="M9.92,12.12h42a5,5,0,1,0,0-10H41.54A2.12,2.12,0,0,0,39.43,0h-17a2.12,2.12,0,0,0-2.12,2.12H9.92a5,5,0,0,0,0,10Z"/><path class="cls-2" d="M61.83,20.45a5,5,0,0,0-5-5H5a5,5,0,0,0-5,5,5.1,5.1,0,0,0,.21,1.37h0L8.54,72h0a5,5,0,0,0,4.9,4h35a5,5,0,0,0,4.9-4h0l8.35-50.22h0A5.1,5.1,0,0,0,61.83,20.45ZM17.6,58.62A3.07,3.07,0,0,1,14.14,56L11.63,38.09a3.06,3.06,0,1,1,6.06-.85l2.52,17.92A3.07,3.07,0,0,1,17.6,58.62Zm16.38-3a3.07,3.07,0,0,1-6.13,0V37.49a3.07,3.07,0,0,1,6.13,0Zm16.23-17.5L47.69,56a3.06,3.06,0,1,1-6.06-.85l2.51-17.92a3.06,3.06,0,1,1,6.07.85Z"/><path class="cls-3" d="M30.92,34.43a3.07,3.07,0,0,0-3.07,3.06v18.1a3.07,3.07,0,0,0,6.13,0V37.49A3.06,3.06,0,0,0,30.92,34.43Z"/><path class="cls-3" d="M17.69,37.24a3.06,3.06,0,1,0-6.06.85L14.14,56a3.06,3.06,0,1,0,6.07-.85Z"/><path class="cls-3" d="M47.6,34.63a3.07,3.07,0,0,0-3.46,2.61L41.63,55.16a3.06,3.06,0,1,0,6.06.85l2.52-17.92A3.07,3.07,0,0,0,47.6,34.63Z"/></g></g></g></g></svg>