<svg xmlns="http://www.w3.org/2000/svg" viewBox="0 0 61.83 85.39"><defs><style>.cls-1{fill:#fe7332;}.cls-2{fill:#f0b825;}.cls-3{fill:#9698fe;}</style></defs><g id="Layer_2" data-name="Layer 2"><g id="Main"><g id="Trash"><g id="TrashOpen"><path class="cls-1" d="M8.86,20.7,49.43,9.83A5,5,0,0,0,46.85.17l-10,2.69a2.12,2.12,0,0,0-2.59-1.5L17.79,5.76a2.13,2.13,0,0,0-1.49,2.6L6.28,11A5,5,0,1,0,8.86,20.7Z"/><path class="cls-2" d="M61.83,29.78a5,5,0,0,0-5-5H5a5,5,0,0,0-5,5,5.16,5.16,0,0,0,.21,1.37h0L8.54,81.36h0a5,5,0,0,0,4.9,4h35a5,5,0,0,0,4.9-4h0l8.35-50.21h0A5.16,5.16,0,0,0,61.83,29.78ZM17.6,67.94a3.06,3.06,0,0,1-3.46-2.6L11.63,47.41a3.06,3.06,0,0,1,6.06-.85l2.52,17.92A3.06,3.06,0,0,1,17.6,67.94Zm16.38-3a3.07,3.07,0,0,1-6.13,0V46.81a3.07,3.07,0,0,1,6.13,0Zm16.23-17.5L47.69,65.34a3.06,3.06,0,0,1-6.06-.86l2.51-17.92a3.06,3.06,0,0,1,6.07.85Z"/><path class="cls-3" d="M30.92,43.75a3.07,3.07,0,0,0-3.07,3.06v18.1a3.07,3.07,0,0,0,6.13,0V46.81A3.06,3.06,0,0,0,30.92,43.75Z"/><path class="cls-3" d="M17.69,46.56a3.06,3.06,0,0,0-6.06.85l2.51,17.93a3.07,3.07,0,0,0,6.07-.86Z"/><path class="cls-3" d="M47.6,44a3.06,3.06,0,0,0-3.46,2.6L41.63,64.48a3.06,3.06,0,0,0,6.06.86l2.52-17.93A3.06,3.06,0,0,0,47.6,44Z"/></g></g></g></g></svg>