<svg xmlns="http://www.w3.org/2000/svg" viewBox="0 0 71.26 74.33"><defs><style>.cls-1{fill:#fe7332;}.cls-2{fill:#f0b825;}.cls-3{fill:#9698fe;}</style></defs><g id="Layer_2" data-name="Layer 2"><g id="Main"><g id="Bell"><g id="Bell-2" data-name="Bell"><circle class="cls-1" cx="35.63" cy="5" r="5"/><path class="cls-2" d="M66.26,57.06H60.63V37.7a25,25,0,0,0-50,0V57.06H5a5,5,0,0,0,0,10H28.35a7.28,7.28,0,1,1,14.56,0H66.26a5,5,0,0,0,0-10Z"/><path class="cls-1" d="M35.63,74.33a7.28,7.28,0,0,0,7.28-7.27H28.35A7.28,7.28,0,0,0,35.63,74.33Z"/><path class="cls-3" d="M35.63,59.78a7.28,7.28,0,0,0-7.28,7.28H42.91A7.28,7.28,0,0,0,35.63,59.78Z"/></g></g></g></g></svg>