<svg xmlns="http://www.w3.org/2000/svg" viewBox="0 0 84.44 90.53"><defs><style>.cls-1{fill:#fe7332;}.cls-2{fill:none;}.cls-3{fill:#9698fe;}.cls-4{fill:#f0b825;}</style></defs><g id="Layer_2" data-name="Layer 2"><g id="Main"><g id="Cart"><g id="FullCart"><path class="cls-1" d="M11.56,20.89A6,6,0,1,0,12,23.13,6,6,0,0,0,11.56,20.89Z"/><rect class="cls-2" x="25.81" y="5.93" width="14.88" height="6.05" transform="translate(0.4 19.27) rotate(-32.5)"/><path class="cls-1" d="M31.73,84.53a6,6,0,1,0,11.56-2.24H32.17A6,6,0,0,0,31.73,84.53Z"/><path class="cls-3" d="M37.73,78.53a6,6,0,0,0-5.56,3.76H43.29A6,6,0,0,0,37.73,78.53Z"/><path class="cls-1" d="M56.16,84.53a6,6,0,1,0,11.56-2.24H56.6A6,6,0,0,0,56.16,84.53Z"/><path class="cls-3" d="M62.16,78.53a6,6,0,0,0-5.56,3.76H67.72A6,6,0,0,0,62.16,78.53Z"/><path class="cls-4" d="M63,68.87a6.69,6.69,0,0,0,6-3.73h0L83.29,37.68a6.71,6.71,0,0,0-5.56-10.46H66.37l3.87,6.08a3.62,3.62,0,0,1-1.11,5L44.71,53.87a3.62,3.62,0,0,1-5-1.11L23.42,27.22H17.68A6.7,6.7,0,0,0,11,33.92a6.6,6.6,0,0,0,.92,3.33h0L26.39,65.14h0A6.61,6.61,0,0,0,27.77,67l-7.22,7.22,0,0a4.72,4.72,0,0,0,3.32,8.08h8.27a6,6,0,0,1,11.12,0H56.6a6,6,0,0,1,11.12,0h3.79a4.72,4.72,0,0,0,0-9.44H35.25l4-4Z"/><path class="cls-3" d="M52.1,4.83a3.63,3.63,0,0,0-5-1.11l-4.23,2.7L39.07.47a1,1,0,0,0-1.4-.31L23.42,9.24a1,1,0,0,0-.31,1.39l3.79,5.95-4.23,2.7a3.63,3.63,0,0,0-1.11,5l1.86,2.93h43ZM28.6,15.5l-3.25-5.1,12.56-8,3.24,5.1Z"/><path class="cls-1" d="M44.71,53.87,69.13,38.31a3.62,3.62,0,0,0,1.11-5l-3.87-6.08H23.42L39.7,52.76A3.62,3.62,0,0,0,44.71,53.87Z"/></g></g></g></g></svg>